<svg width="238" height="177" viewBox="0 0 238 177" fill="none" xmlns="http://www.w3.org/2000/svg">
<path d="M48.6327 166.152C48.7287 166.36 48.7767 166.568 48.7767 166.776C48.7767 167.144 48.6247 167.456 48.3207 167.712C48.0327 167.968 47.6967 168.096 47.3127 168.096C47.0567 168.096 46.8167 168.032 46.5927 167.904C46.3687 167.76 46.1927 167.544 46.0647 167.256L44.6247 164.04H36.1767L34.7367 167.256C34.6087 167.544 34.4327 167.76 34.2087 167.904C33.9847 168.032 33.7367 168.096 33.4647 168.096C33.0967 168.096 32.7607 167.968 32.4567 167.712C32.1527 167.456 32.0007 167.144 32.0007 166.776C32.0007 166.568 32.0487 166.36 32.1447 166.152L38.7687 151.92C38.9127 151.6 39.1287 151.36 39.4167 151.2C39.7207 151.024 40.0407 150.936 40.3767 150.936C40.7127 150.936 41.0247 151.024 41.3127 151.2C41.6167 151.36 41.8407 151.6 41.9847 151.92L48.6327 166.152ZM43.5687 161.64L40.4007 154.512L37.2327 161.64H43.5687ZM57.3972 156.024C57.8132 155.992 58.1412 156.08 58.3812 156.288C58.6212 156.496 58.7412 156.808 58.7412 157.224C58.7412 157.656 58.6372 157.976 58.4292 158.184C58.2212 158.392 57.8452 158.528 57.3012 158.592L56.5812 158.664C55.6372 158.76 54.9412 159.08 54.4932 159.624C54.0612 160.168 53.8452 160.848 53.8452 161.664V166.704C53.8452 167.168 53.7012 167.528 53.4132 167.784C53.1252 168.024 52.7652 168.144 52.3332 168.144C51.9012 168.144 51.5412 168.024 51.2532 167.784C50.9812 167.528 50.8452 167.168 50.8452 166.704V157.416C50.8452 156.968 50.9812 156.624 51.2532 156.384C51.5412 156.144 51.8932 156.024 52.3092 156.024C52.7252 156.024 53.0612 156.144 53.3172 156.384C53.5732 156.608 53.7012 156.936 53.7012 157.368V158.328C54.0052 157.624 54.4532 157.08 55.0452 156.696C55.6532 156.312 56.3252 156.096 57.0612 156.048L57.3972 156.024ZM69.0863 164.784C69.3583 164.784 69.5743 164.888 69.7343 165.096C69.9103 165.304 69.9983 165.584 69.9983 165.936C69.9983 166.432 69.7023 166.848 69.1103 167.184C68.5663 167.488 67.9503 167.736 67.2623 167.928C66.5743 168.104 65.9183 168.192 65.2943 168.192C63.4063 168.192 61.9103 167.648 60.8063 166.56C59.7023 165.472 59.1503 163.984 59.1503 162.096C59.1503 160.896 59.3903 159.832 59.8703 158.904C60.3503 157.976 61.0223 157.256 61.8863 156.744C62.7663 156.232 63.7583 155.976 64.8623 155.976C65.9183 155.976 66.8383 156.208 67.6223 156.672C68.4063 157.136 69.0143 157.792 69.4463 158.64C69.8783 159.488 70.0943 160.488 70.0943 161.64C70.0943 162.328 69.7903 162.672 69.1823 162.672H62.1023C62.1983 163.776 62.5103 164.592 63.0383 165.12C63.5663 165.632 64.3343 165.888 65.3423 165.888C65.8543 165.888 66.3023 165.824 66.6863 165.696C67.0863 165.568 67.5343 165.392 68.0303 165.168C68.5103 164.912 68.8623 164.784 69.0863 164.784ZM64.9343 158.088C64.1183 158.088 63.4623 158.344 62.9663 158.856C62.4863 159.368 62.1983 160.104 62.1023 161.064H67.5263C67.4943 160.088 67.2543 159.352 66.8063 158.856C66.3583 158.344 65.7343 158.088 64.9343 158.088ZM77.6363 155.976C79.2683 155.976 80.4763 156.384 81.2603 157.2C82.0603 158 82.4603 159.224 82.4603 160.872V166.728C82.4603 167.16 82.3323 167.504 82.0763 167.76C81.8203 168 81.4683 168.12 81.0203 168.12C80.6043 168.12 80.2603 167.992 79.9883 167.736C79.7323 167.48 79.6043 167.144 79.6043 166.728V166.2C79.3323 166.824 78.9003 167.312 78.3083 167.664C77.7323 168.016 77.0603 168.192 76.2923 168.192C75.5083 168.192 74.7963 168.032 74.1563 167.712C73.5163 167.392 73.0123 166.952 72.6443 166.392C72.2763 165.832 72.0923 165.208 72.0923 164.52C72.0923 163.656 72.3083 162.976 72.7403 162.48C73.1883 161.984 73.9083 161.624 74.9003 161.4C75.8923 161.176 77.2603 161.064 79.0043 161.064H79.6043V160.512C79.6043 159.728 79.4363 159.16 79.1003 158.808C78.7643 158.44 78.2203 158.256 77.4683 158.256C77.0043 158.256 76.5323 158.328 76.0523 158.472C75.5723 158.6 75.0043 158.792 74.3483 159.048C73.9323 159.256 73.6283 159.36 73.4363 159.36C73.1483 159.36 72.9083 159.256 72.7163 159.048C72.5403 158.84 72.4523 158.568 72.4523 158.232C72.4523 157.96 72.5163 157.728 72.6443 157.536C72.7883 157.328 73.0203 157.136 73.3403 156.96C73.9003 156.656 74.5643 156.416 75.3323 156.24C76.1163 156.064 76.8843 155.976 77.6363 155.976ZM76.8923 166.032C77.6923 166.032 78.3403 165.768 78.8363 165.24C79.3483 164.696 79.6043 164 79.6043 163.152V162.648H79.1723C78.1003 162.648 77.2683 162.696 76.6763 162.792C76.0843 162.888 75.6603 163.056 75.4043 163.296C75.1483 163.536 75.0203 163.864 75.0203 164.28C75.0203 164.792 75.1963 165.216 75.5483 165.552C75.9163 165.872 76.3643 166.032 76.8923 166.032ZM105.969 155.976C107.249 155.976 108.225 156.36 108.897 157.128C109.585 157.88 109.929 159.104 109.929 160.8V166.704C109.929 167.168 109.785 167.528 109.497 167.784C109.225 168.024 108.865 168.144 108.417 168.144C107.985 168.144 107.625 168.024 107.337 167.784C107.065 167.528 106.929 167.168 106.929 166.704V160.8C106.929 159.92 106.769 159.296 106.449 158.928C106.145 158.544 105.673 158.352 105.033 158.352C104.249 158.352 103.625 158.624 103.161 159.168C102.697 159.696 102.465 160.424 102.465 161.352V166.704C102.465 167.168 102.321 167.528 102.033 167.784C101.761 168.024 101.409 168.144 100.977 168.144C100.545 168.144 100.185 168.024 99.8968 167.784C99.6088 167.528 99.4648 167.168 99.4648 166.704V160.8C99.4648 159.92 99.3048 159.296 98.9848 158.928C98.6808 158.544 98.2088 158.352 97.5688 158.352C96.7848 158.352 96.1608 158.624 95.6968 159.168C95.2488 159.696 95.0248 160.424 95.0248 161.352V166.704C95.0248 167.168 94.8808 167.528 94.5928 167.784C94.3048 168.024 93.9448 168.144 93.5128 168.144C93.0808 168.144 92.7208 168.024 92.4328 167.784C92.1608 167.528 92.0248 167.168 92.0248 166.704V157.416C92.0248 156.968 92.1688 156.624 92.4568 156.384C92.7448 156.144 93.1048 156.024 93.5368 156.024C93.9528 156.024 94.2888 156.144 94.5448 156.384C94.8168 156.608 94.9528 156.936 94.9528 157.368V157.944C95.3208 157.304 95.8088 156.816 96.4168 156.48C97.0408 156.144 97.7528 155.976 98.5528 155.976C100.313 155.976 101.489 156.712 102.081 158.184C102.433 157.512 102.953 156.976 103.641 156.576C104.329 156.176 105.105 155.976 105.969 155.976ZM122.266 164.784C122.538 164.784 122.754 164.888 122.914 165.096C123.09 165.304 123.178 165.584 123.178 165.936C123.178 166.432 122.882 166.848 122.29 167.184C121.746 167.488 121.13 167.736 120.442 167.928C119.754 168.104 119.098 168.192 118.474 168.192C116.586 168.192 115.09 167.648 113.986 166.56C112.882 165.472 112.33 163.984 112.33 162.096C112.33 160.896 112.57 159.832 113.05 158.904C113.53 157.976 114.202 157.256 115.066 156.744C115.946 156.232 116.938 155.976 118.042 155.976C119.098 155.976 120.018 156.208 120.802 156.672C121.586 157.136 122.194 157.792 122.626 158.64C123.058 159.488 123.274 160.488 123.274 161.64C123.274 162.328 122.97 162.672 122.362 162.672H115.282C115.378 163.776 115.69 164.592 116.218 165.12C116.746 165.632 117.514 165.888 118.522 165.888C119.034 165.888 119.482 165.824 119.866 165.696C120.266 165.568 120.714 165.392 121.21 165.168C121.69 164.912 122.042 164.784 122.266 164.784ZM118.114 158.088C117.298 158.088 116.642 158.344 116.146 158.856C115.666 159.368 115.378 160.104 115.282 161.064H120.706C120.674 160.088 120.434 159.352 119.986 158.856C119.538 158.344 118.914 158.088 118.114 158.088ZM130.816 155.976C132.448 155.976 133.656 156.384 134.44 157.2C135.24 158 135.64 159.224 135.64 160.872V166.728C135.64 167.16 135.512 167.504 135.256 167.76C135 168 134.648 168.12 134.2 168.12C133.784 168.12 133.44 167.992 133.168 167.736C132.912 167.48 132.784 167.144 132.784 166.728V166.2C132.512 166.824 132.08 167.312 131.488 167.664C130.912 168.016 130.24 168.192 129.472 168.192C128.688 168.192 127.976 168.032 127.336 167.712C126.696 167.392 126.192 166.952 125.824 166.392C125.456 165.832 125.272 165.208 125.272 164.52C125.272 163.656 125.488 162.976 125.92 162.48C126.368 161.984 127.088 161.624 128.08 161.4C129.072 161.176 130.44 161.064 132.184 161.064H132.784V160.512C132.784 159.728 132.616 159.16 132.28 158.808C131.944 158.44 131.4 158.256 130.648 158.256C130.184 158.256 129.712 158.328 129.232 158.472C128.752 158.6 128.184 158.792 127.528 159.048C127.112 159.256 126.808 159.36 126.616 159.36C126.328 159.36 126.088 159.256 125.896 159.048C125.72 158.84 125.632 158.568 125.632 158.232C125.632 157.96 125.696 157.728 125.824 157.536C125.968 157.328 126.2 157.136 126.52 156.96C127.08 156.656 127.744 156.416 128.512 156.24C129.296 156.064 130.064 155.976 130.816 155.976ZM130.072 166.032C130.872 166.032 131.52 165.768 132.016 165.24C132.528 164.696 132.784 164 132.784 163.152V162.648H132.352C131.28 162.648 130.448 162.696 129.856 162.792C129.264 162.888 128.84 163.056 128.584 163.296C128.328 163.536 128.2 163.864 128.2 164.28C128.2 164.792 128.376 165.216 128.728 165.552C129.096 165.872 129.544 166.032 130.072 166.032ZM142.937 168.192C141.193 168.192 139.785 167.848 138.713 167.16C138.201 166.856 137.945 166.424 137.945 165.864C137.945 165.544 138.033 165.288 138.209 165.096C138.385 164.888 138.601 164.784 138.857 164.784C139.129 164.784 139.505 164.912 139.985 165.168C140.497 165.408 140.961 165.592 141.377 165.72C141.809 165.848 142.353 165.912 143.009 165.912C143.681 165.912 144.201 165.8 144.569 165.576C144.953 165.352 145.145 165.04 145.145 164.64C145.145 164.368 145.065 164.152 144.905 163.992C144.761 163.832 144.489 163.688 144.089 163.56C143.705 163.416 143.113 163.256 142.313 163.08C140.889 162.792 139.865 162.384 139.241 161.856C138.633 161.328 138.329 160.6 138.329 159.672C138.329 158.968 138.537 158.336 138.953 157.776C139.369 157.2 139.937 156.76 140.657 156.456C141.393 156.136 142.225 155.976 143.153 155.976C143.825 155.976 144.473 156.064 145.097 156.24C145.721 156.4 146.281 156.64 146.777 156.96C147.289 157.28 147.545 157.704 147.545 158.232C147.545 158.552 147.457 158.824 147.281 159.048C147.105 159.256 146.889 159.36 146.633 159.36C146.457 159.36 146.281 159.328 146.105 159.264C145.945 159.184 145.737 159.072 145.481 158.928C145.017 158.688 144.617 158.512 144.281 158.4C143.945 158.272 143.529 158.208 143.033 158.208C142.441 158.208 141.969 158.328 141.617 158.568C141.281 158.808 141.113 159.136 141.113 159.552C141.113 159.952 141.289 160.256 141.641 160.464C141.993 160.672 142.673 160.88 143.681 161.088C144.753 161.312 145.593 161.568 146.201 161.856C146.809 162.144 147.241 162.504 147.497 162.936C147.769 163.368 147.905 163.92 147.905 164.592C147.905 165.68 147.449 166.552 146.537 167.208C145.641 167.864 144.441 168.192 142.937 168.192ZM159.601 156.024C160.065 156.024 160.433 156.152 160.705 156.408C160.977 156.664 161.113 157.008 161.113 157.44V166.752C161.113 167.168 160.969 167.504 160.681 167.76C160.409 168.016 160.049 168.144 159.601 168.144C159.169 168.144 158.825 168.024 158.569 167.784C158.313 167.544 158.185 167.216 158.185 166.8V166.2C157.817 166.84 157.321 167.336 156.697 167.688C156.073 168.024 155.369 168.192 154.585 168.192C151.705 168.192 150.265 166.576 150.265 163.344V157.44C150.265 157.008 150.401 156.664 150.673 156.408C150.945 156.152 151.305 156.024 151.753 156.024C152.217 156.024 152.585 156.152 152.857 156.408C153.129 156.664 153.265 157.008 153.265 157.44V163.368C153.265 164.2 153.433 164.816 153.769 165.216C154.105 165.616 154.633 165.816 155.353 165.816C156.185 165.816 156.849 165.544 157.345 165C157.857 164.44 158.113 163.704 158.113 162.792V157.44C158.113 157.008 158.249 156.664 158.521 156.408C158.793 156.152 159.153 156.024 159.601 156.024ZM170.788 156.024C171.204 155.992 171.532 156.08 171.772 156.288C172.012 156.496 172.132 156.808 172.132 157.224C172.132 157.656 172.028 157.976 171.82 158.184C171.612 158.392 171.236 158.528 170.692 158.592L169.972 158.664C169.028 158.76 168.332 159.08 167.884 159.624C167.452 160.168 167.236 160.848 167.236 161.664V166.704C167.236 167.168 167.092 167.528 166.804 167.784C166.516 168.024 166.156 168.144 165.724 168.144C165.292 168.144 164.932 168.024 164.644 167.784C164.372 167.528 164.236 167.168 164.236 166.704V157.416C164.236 156.968 164.372 156.624 164.644 156.384C164.932 156.144 165.284 156.024 165.7 156.024C166.116 156.024 166.452 156.144 166.708 156.384C166.964 156.608 167.092 156.936 167.092 157.368V158.328C167.396 157.624 167.844 157.08 168.436 156.696C169.044 156.312 169.716 156.096 170.452 156.048L170.788 156.024ZM174.911 168.144C174.479 168.144 174.119 168.024 173.831 167.784C173.559 167.528 173.423 167.168 173.423 166.704V157.44C173.423 156.976 173.559 156.624 173.831 156.384C174.119 156.144 174.479 156.024 174.911 156.024C175.343 156.024 175.703 156.144 175.991 156.384C176.279 156.624 176.423 156.976 176.423 157.44V166.704C176.423 167.168 176.279 167.528 175.991 167.784C175.703 168.024 175.343 168.144 174.911 168.144ZM174.911 153.888C174.367 153.888 173.935 153.744 173.615 153.456C173.295 153.152 173.135 152.76 173.135 152.28C173.135 151.8 173.295 151.416 173.615 151.128C173.935 150.84 174.367 150.696 174.911 150.696C175.439 150.696 175.863 150.84 176.183 151.128C176.519 151.416 176.687 151.8 176.687 152.28C176.687 152.76 176.527 153.152 176.207 153.456C175.887 153.744 175.455 153.888 174.911 153.888ZM186.333 155.976C187.741 155.976 188.789 156.376 189.477 157.176C190.165 157.976 190.509 159.184 190.509 160.8V166.704C190.509 167.152 190.373 167.504 190.101 167.76C189.845 168.016 189.485 168.144 189.021 168.144C188.557 168.144 188.189 168.016 187.917 167.76C187.645 167.504 187.509 167.152 187.509 166.704V160.968C187.509 160.056 187.333 159.392 186.981 158.976C186.645 158.56 186.109 158.352 185.373 158.352C184.509 158.352 183.813 158.624 183.285 159.168C182.773 159.712 182.517 160.44 182.517 161.352V166.704C182.517 167.152 182.381 167.504 182.109 167.76C181.837 168.016 181.469 168.144 181.005 168.144C180.541 168.144 180.173 168.016 179.901 167.76C179.645 167.504 179.517 167.152 179.517 166.704V157.416C179.517 157 179.653 156.664 179.925 156.408C180.197 156.152 180.565 156.024 181.029 156.024C181.445 156.024 181.781 156.152 182.037 156.408C182.309 156.648 182.445 156.968 182.445 157.368V158.016C182.845 157.36 183.381 156.856 184.053 156.504C184.725 156.152 185.485 155.976 186.333 155.976ZM203.492 156.024C203.94 156.024 204.3 156.152 204.572 156.408C204.844 156.664 204.98 157.008 204.98 157.44V166.92C204.98 168.76 204.468 170.152 203.444 171.096C202.42 172.04 200.908 172.512 198.908 172.512C197.164 172.512 195.708 172.184 194.54 171.528C193.948 171.176 193.652 170.752 193.652 170.256C193.652 169.904 193.732 169.624 193.892 169.416C194.068 169.208 194.292 169.104 194.564 169.104C194.708 169.104 194.884 169.136 195.092 169.2C195.3 169.28 195.516 169.368 195.74 169.464C196.316 169.704 196.828 169.888 197.276 170.016C197.74 170.144 198.268 170.208 198.86 170.208C200.956 170.208 202.004 169.184 202.004 167.136V165.6C201.652 166.256 201.14 166.768 200.468 167.136C199.796 167.488 199.028 167.664 198.164 167.664C197.14 167.664 196.228 167.424 195.428 166.944C194.644 166.448 194.028 165.76 193.58 164.88C193.132 164 192.908 162.984 192.908 161.832C192.908 160.68 193.124 159.664 193.556 158.784C194.004 157.888 194.628 157.2 195.428 156.72C196.228 156.224 197.14 155.976 198.164 155.976C199.028 155.976 199.796 156.16 200.468 156.528C201.14 156.88 201.652 157.384 202.004 158.04V157.416C202.004 157 202.14 156.664 202.412 156.408C202.684 156.152 203.044 156.024 203.492 156.024ZM198.956 165.336C199.916 165.336 200.66 165.024 201.188 164.4C201.732 163.776 202.004 162.92 202.004 161.832C202.004 160.728 201.732 159.864 201.188 159.24C200.66 158.616 199.916 158.304 198.956 158.304C198.012 158.304 197.268 158.616 196.724 159.24C196.18 159.864 195.908 160.728 195.908 161.832C195.908 162.92 196.18 163.776 196.724 164.4C197.268 165.024 198.012 165.336 198.956 165.336Z" fill="black"/>
<path d="M77.5068 111.84C79.0428 111.84 80.1948 112.192 80.9628 112.896C81.7948 113.6 82.2108 114.592 82.2108 115.872C82.2108 118.624 80.6428 120 77.5068 120H40.4508C39.0428 120 37.9228 119.616 37.0908 118.848C36.3228 118.016 35.9388 116.992 35.9388 115.776C35.9388 114.304 36.5148 112.96 37.6668 111.744L60.2268 87.072C63.2348 83.808 65.4108 80.832 66.7548 78.144C68.0988 75.456 68.7708 72.8 68.7708 70.176C68.7708 66.784 67.7788 64.192 65.7948 62.4C63.8748 60.544 61.1228 59.616 57.5388 59.616C52.0988 59.616 46.6908 61.696 41.3148 65.856C40.6108 66.304 40.0028 66.656 39.4908 66.912C39.0428 67.104 38.5628 67.2 38.0508 67.2C37.1548 67.2 36.3868 66.784 35.7468 65.952C35.1068 65.12 34.7868 64.128 34.7868 62.976C34.7868 61.376 35.4268 60.096 36.7068 59.136C39.3948 56.832 42.6268 55.008 46.4028 53.664C50.1788 52.256 53.9868 51.552 57.8268 51.552C64.1628 51.552 69.1868 53.184 72.8988 56.448C76.6748 59.648 78.5627 64 78.5627 69.504C78.5627 73.408 77.6988 77.12 75.9708 80.64C74.3068 84.16 71.4908 88.096 67.5228 92.448L49.3788 111.84H77.5068Z" fill="#F9BDBD" fill-opacity="0.25"/>
<path d="M109.323 94.8387V1.93549H86.0968V94.8387V98.7097V118.065H151.903V94.8387H109.323Z" fill="#F7DEA6"/>
<path d="M111.258 92.9032V0H84.1613V120H153.839V92.9032H111.258ZM107.387 3.87097V94.0374L93.7013 107.723L96.438 110.46L110.124 96.7742H149.968V104.516H111.258V116.129H90.769L93.2716 113.626L90.5348 110.89L88.0322 113.392V98.7097H101.581V94.8387H88.0322V90.9677H93.8387V87.0968H88.0322V83.2258H101.581V79.3548H88.0322V75.4839H93.8387V71.6129H88.0322V67.7419H101.581V63.871H88.0322V60H93.8387V56.129H88.0322V52.2581H101.581V48.3871H88.0322V44.5161H93.8387V40.6452H88.0322V36.7742H101.581V32.9032H88.0322V29.0323H93.8387V25.1613H88.0322V3.87097H107.387ZM122.871 108.387H126.742V116.129H122.871V108.387ZM119 116.129H115.129V108.387H119V116.129ZM130.613 108.387H134.484V116.129H130.613V108.387ZM138.355 108.387H142.226V116.129H138.355V108.387ZM146.097 116.129V108.387H149.968V116.129H146.097Z" fill="#333333"/>
<path d="M97.7097 19.3548C100.911 19.3548 103.516 16.7497 103.516 13.5484C103.516 10.3471 100.911 7.74194 97.7097 7.74194C94.5084 7.74194 91.9032 10.3471 91.9032 13.5484C91.9032 16.7497 94.5084 19.3548 97.7097 19.3548ZM97.7097 11.6129C98.778 11.6129 99.6451 12.48 99.6451 13.5484C99.6451 14.6168 98.778 15.4839 97.7097 15.4839C96.6413 15.4839 95.7742 14.6168 95.7742 13.5484C95.7742 12.48 96.6413 11.6129 97.7097 11.6129Z" fill="#333333"/>
</svg>
