<svg width="238" height="177" viewBox="0 0 238 177" fill="none" xmlns="http://www.w3.org/2000/svg">
<path d="M64.8348 107.34C66.3708 107.34 67.5228 107.692 68.2908 108.396C69.0588 109.1 69.4428 110.092 69.4428 111.372C69.4428 114.124 67.9068 115.5 64.8348 115.5H32.7708C29.6348 115.5 28.0668 114.124 28.0668 111.372C28.0668 110.092 28.4508 109.1 29.2188 108.396C30.0508 107.692 31.2348 107.34 32.7708 107.34H43.8108V59.436L33.9228 65.676C33.2828 66.06 32.6428 66.252 32.0028 66.252C30.9148 66.252 29.9548 65.772 29.1228 64.812C28.3548 63.852 27.9708 62.764 27.9708 61.548C27.9708 60.076 28.6108 58.924 29.8907 58.092L44.6748 48.684C46.1468 47.788 47.5548 47.34 48.8988 47.34C50.3068 47.34 51.4588 47.788 52.3548 48.684C53.2508 49.58 53.6988 50.796 53.6988 52.332V107.34H64.8348Z" fill="#F9BDBD" fill-opacity="0.25"/>
<path d="M45.3918 168.216C43.7598 168.216 42.3278 167.864 41.0958 167.16C39.8798 166.456 38.9438 165.448 38.2878 164.136C37.6318 162.824 37.3038 161.288 37.3038 159.528C37.3038 157.768 37.6318 156.24 38.2878 154.944C38.9438 153.632 39.8798 152.624 41.0958 151.92C42.3278 151.216 43.7598 150.864 45.3918 150.864C46.4478 150.864 47.4398 151.024 48.3678 151.344C49.2958 151.648 50.1198 152.096 50.8398 152.688C51.0478 152.848 51.1918 153.016 51.2718 153.192C51.3518 153.368 51.3918 153.584 51.3918 153.84C51.3918 154.192 51.2958 154.488 51.1038 154.728C50.9118 154.968 50.6798 155.088 50.4078 155.088C50.0878 155.088 49.7598 154.976 49.4238 154.752C48.7358 154.24 48.0958 153.888 47.5038 153.696C46.9118 153.488 46.2558 153.384 45.5358 153.384C43.8718 153.384 42.6078 153.904 41.7438 154.944C40.8958 155.984 40.4718 157.512 40.4718 159.528C40.4718 161.56 40.8958 163.096 41.7438 164.136C42.6078 165.176 43.8718 165.696 45.5358 165.696C46.2238 165.696 46.8558 165.592 47.4318 165.384C48.0238 165.176 48.6878 164.824 49.4238 164.328C49.5838 164.232 49.7438 164.152 49.9038 164.088C50.0638 164.024 50.2318 163.992 50.4078 163.992C50.6798 163.992 50.9118 164.112 51.1038 164.352C51.2958 164.592 51.3918 164.888 51.3918 165.24C51.3918 165.48 51.3518 165.696 51.2718 165.888C51.1918 166.064 51.0478 166.232 50.8398 166.392C50.1198 166.984 49.2958 167.44 48.3678 167.76C47.4398 168.064 46.4478 168.216 45.3918 168.216ZM60.6974 155.976C63.4494 155.976 64.8254 157.584 64.8254 160.8V166.704C64.8254 167.152 64.6894 167.504 64.4174 167.76C64.1614 168.016 63.8014 168.144 63.3374 168.144C62.8734 168.144 62.5054 168.016 62.2334 167.76C61.9614 167.504 61.8254 167.152 61.8254 166.704V160.8C61.8254 159.952 61.6494 159.336 61.2974 158.952C60.9614 158.552 60.4254 158.352 59.6894 158.352C58.8254 158.352 58.1294 158.624 57.6014 159.168C57.0894 159.712 56.8334 160.44 56.8334 161.352V166.704C56.8334 167.152 56.6974 167.504 56.4254 167.76C56.1534 168.016 55.7854 168.144 55.3214 168.144C54.8574 168.144 54.4894 168.016 54.2174 167.76C53.9614 167.504 53.8334 167.152 53.8334 166.704V152.352C53.8334 151.936 53.9694 151.6 54.2414 151.344C54.5294 151.088 54.8974 150.96 55.3454 150.96C55.7934 150.96 56.1534 151.08 56.4254 151.32C56.6974 151.56 56.8334 151.888 56.8334 152.304V157.896C57.2334 157.272 57.7614 156.8 58.4174 156.48C59.0894 156.144 59.8494 155.976 60.6974 155.976ZM73.2245 168.192C72.0245 168.192 70.9685 167.944 70.0565 167.448C69.1605 166.952 68.4645 166.24 67.9685 165.312C67.4725 164.384 67.2245 163.304 67.2245 162.072C67.2245 160.84 67.4725 159.768 67.9685 158.856C68.4645 157.928 69.1605 157.216 70.0565 156.72C70.9685 156.224 72.0245 155.976 73.2245 155.976C74.4245 155.976 75.4725 156.224 76.3685 156.72C77.2805 157.216 77.9765 157.928 78.4565 158.856C78.9525 159.768 79.2005 160.84 79.2005 162.072C79.2005 163.304 78.9525 164.384 78.4565 165.312C77.9765 166.24 77.2805 166.952 76.3685 167.448C75.4725 167.944 74.4245 168.192 73.2245 168.192ZM73.2005 165.864C74.1765 165.864 74.9205 165.544 75.4325 164.904C75.9445 164.264 76.2005 163.32 76.2005 162.072C76.2005 160.84 75.9445 159.904 75.4325 159.264C74.9205 158.608 74.1845 158.28 73.2245 158.28C72.2645 158.28 71.5205 158.608 70.9925 159.264C70.4805 159.904 70.2245 160.84 70.2245 162.072C70.2245 163.32 70.4805 164.264 70.9925 164.904C71.5045 165.544 72.2405 165.864 73.2005 165.864ZM87.0292 168.192C85.8292 168.192 84.7732 167.944 83.8612 167.448C82.9652 166.952 82.2692 166.24 81.7732 165.312C81.2772 164.384 81.0292 163.304 81.0292 162.072C81.0292 160.84 81.2772 159.768 81.7732 158.856C82.2692 157.928 82.9652 157.216 83.8612 156.72C84.7732 156.224 85.8292 155.976 87.0292 155.976C88.2292 155.976 89.2772 156.224 90.1732 156.72C91.0852 157.216 91.7812 157.928 92.2612 158.856C92.7572 159.768 93.0052 160.84 93.0052 162.072C93.0052 163.304 92.7572 164.384 92.2612 165.312C91.7812 166.24 91.0852 166.952 90.1732 167.448C89.2772 167.944 88.2292 168.192 87.0292 168.192ZM87.0052 165.864C87.9812 165.864 88.7252 165.544 89.2372 164.904C89.7492 164.264 90.0052 163.32 90.0052 162.072C90.0052 160.84 89.7492 159.904 89.2372 159.264C88.7252 158.608 87.9892 158.28 87.0292 158.28C86.0692 158.28 85.3252 158.608 84.7972 159.264C84.2852 159.904 84.0292 160.84 84.0292 162.072C84.0292 163.32 84.2852 164.264 84.7972 164.904C85.3092 165.544 86.0452 165.864 87.0052 165.864ZM99.7299 168.192C97.9859 168.192 96.5779 167.848 95.5059 167.16C94.9939 166.856 94.7379 166.424 94.7379 165.864C94.7379 165.544 94.8259 165.288 95.0019 165.096C95.1779 164.888 95.3939 164.784 95.6499 164.784C95.9219 164.784 96.2979 164.912 96.7779 165.168C97.2899 165.408 97.7539 165.592 98.1699 165.72C98.6019 165.848 99.1459 165.912 99.8019 165.912C100.474 165.912 100.994 165.8 101.362 165.576C101.746 165.352 101.938 165.04 101.938 164.64C101.938 164.368 101.858 164.152 101.698 163.992C101.554 163.832 101.282 163.688 100.882 163.56C100.498 163.416 99.9059 163.256 99.1059 163.08C97.6819 162.792 96.6579 162.384 96.0339 161.856C95.4259 161.328 95.1219 160.6 95.1219 159.672C95.1219 158.968 95.3299 158.336 95.7459 157.776C96.1619 157.2 96.7299 156.76 97.4499 156.456C98.1859 156.136 99.0179 155.976 99.9459 155.976C100.618 155.976 101.266 156.064 101.89 156.24C102.514 156.4 103.074 156.64 103.57 156.96C104.082 157.28 104.338 157.704 104.338 158.232C104.338 158.552 104.25 158.824 104.074 159.048C103.898 159.256 103.682 159.36 103.426 159.36C103.25 159.36 103.074 159.328 102.898 159.264C102.738 159.184 102.53 159.072 102.274 158.928C101.81 158.688 101.41 158.512 101.074 158.4C100.738 158.272 100.322 158.208 99.8259 158.208C99.2339 158.208 98.7619 158.328 98.4099 158.568C98.0739 158.808 97.9059 159.136 97.9059 159.552C97.9059 159.952 98.0819 160.256 98.4339 160.464C98.7859 160.672 99.4659 160.88 100.474 161.088C101.546 161.312 102.386 161.568 102.994 161.856C103.602 162.144 104.034 162.504 104.29 162.936C104.562 163.368 104.698 163.92 104.698 164.592C104.698 165.68 104.242 166.552 103.33 167.208C102.434 167.864 101.234 168.192 99.7299 168.192ZM116.418 164.784C116.69 164.784 116.906 164.888 117.066 165.096C117.242 165.304 117.33 165.584 117.33 165.936C117.33 166.432 117.034 166.848 116.442 167.184C115.898 167.488 115.282 167.736 114.594 167.928C113.906 168.104 113.25 168.192 112.626 168.192C110.738 168.192 109.242 167.648 108.138 166.56C107.034 165.472 106.482 163.984 106.482 162.096C106.482 160.896 106.722 159.832 107.202 158.904C107.682 157.976 108.354 157.256 109.218 156.744C110.098 156.232 111.09 155.976 112.194 155.976C113.25 155.976 114.17 156.208 114.954 156.672C115.738 157.136 116.346 157.792 116.778 158.64C117.21 159.488 117.426 160.488 117.426 161.64C117.426 162.328 117.122 162.672 116.514 162.672H109.434C109.53 163.776 109.842 164.592 110.37 165.12C110.898 165.632 111.666 165.888 112.674 165.888C113.186 165.888 113.634 165.824 114.018 165.696C114.418 165.568 114.866 165.392 115.362 165.168C115.842 164.912 116.194 164.784 116.418 164.784ZM112.266 158.088C111.45 158.088 110.794 158.344 110.298 158.856C109.818 159.368 109.53 160.104 109.434 161.064H114.858C114.826 160.088 114.586 159.352 114.138 158.856C113.69 158.344 113.066 158.088 112.266 158.088ZM128.148 168C127.684 168 127.316 167.872 127.044 167.616C126.788 167.36 126.66 167 126.66 166.536V152.544C126.66 152.08 126.788 151.72 127.044 151.464C127.316 151.208 127.684 151.08 128.148 151.08H132.9C135.668 151.08 137.812 151.824 139.332 153.312C140.868 154.784 141.636 156.856 141.636 159.528C141.636 162.216 140.868 164.304 139.332 165.792C137.812 167.264 135.668 168 132.9 168H128.148ZM132.708 165.48C136.596 165.48 138.54 163.496 138.54 159.528C138.54 155.576 136.596 153.6 132.708 153.6H129.756V165.48H132.708ZM153.778 164.784C154.05 164.784 154.266 164.888 154.426 165.096C154.602 165.304 154.69 165.584 154.69 165.936C154.69 166.432 154.394 166.848 153.802 167.184C153.258 167.488 152.642 167.736 151.954 167.928C151.266 168.104 150.61 168.192 149.986 168.192C148.098 168.192 146.602 167.648 145.498 166.56C144.394 165.472 143.842 163.984 143.842 162.096C143.842 160.896 144.082 159.832 144.562 158.904C145.042 157.976 145.714 157.256 146.578 156.744C147.458 156.232 148.45 155.976 149.554 155.976C150.61 155.976 151.53 156.208 152.314 156.672C153.098 157.136 153.706 157.792 154.138 158.64C154.57 159.488 154.786 160.488 154.786 161.64C154.786 162.328 154.482 162.672 153.874 162.672H146.794C146.89 163.776 147.202 164.592 147.73 165.12C148.258 165.632 149.026 165.888 150.034 165.888C150.546 165.888 150.994 165.824 151.378 165.696C151.778 165.568 152.226 165.392 152.722 165.168C153.202 164.912 153.554 164.784 153.778 164.784ZM149.626 158.088C148.81 158.088 148.154 158.344 147.658 158.856C147.178 159.368 146.89 160.104 146.794 161.064H152.218C152.186 160.088 151.946 159.352 151.498 158.856C151.05 158.344 150.426 158.088 149.626 158.088ZM161.488 168.192C159.744 168.192 158.336 167.848 157.264 167.16C156.752 166.856 156.496 166.424 156.496 165.864C156.496 165.544 156.584 165.288 156.76 165.096C156.936 164.888 157.152 164.784 157.408 164.784C157.68 164.784 158.056 164.912 158.536 165.168C159.048 165.408 159.512 165.592 159.928 165.72C160.36 165.848 160.904 165.912 161.56 165.912C162.232 165.912 162.752 165.8 163.12 165.576C163.504 165.352 163.696 165.04 163.696 164.64C163.696 164.368 163.616 164.152 163.456 163.992C163.312 163.832 163.04 163.688 162.64 163.56C162.256 163.416 161.664 163.256 160.864 163.08C159.44 162.792 158.416 162.384 157.792 161.856C157.184 161.328 156.88 160.6 156.88 159.672C156.88 158.968 157.088 158.336 157.504 157.776C157.92 157.2 158.488 156.76 159.208 156.456C159.944 156.136 160.776 155.976 161.704 155.976C162.376 155.976 163.024 156.064 163.648 156.24C164.272 156.4 164.832 156.64 165.328 156.96C165.84 157.28 166.096 157.704 166.096 158.232C166.096 158.552 166.008 158.824 165.832 159.048C165.656 159.256 165.44 159.36 165.184 159.36C165.008 159.36 164.832 159.328 164.656 159.264C164.496 159.184 164.288 159.072 164.032 158.928C163.568 158.688 163.168 158.512 162.832 158.4C162.496 158.272 162.08 158.208 161.584 158.208C160.992 158.208 160.52 158.328 160.168 158.568C159.832 158.808 159.664 159.136 159.664 159.552C159.664 159.952 159.84 160.256 160.192 160.464C160.544 160.672 161.224 160.88 162.232 161.088C163.304 161.312 164.144 161.568 164.752 161.856C165.36 162.144 165.792 162.504 166.048 162.936C166.32 163.368 166.456 163.92 166.456 164.592C166.456 165.68 166 166.552 165.088 167.208C164.192 167.864 162.992 168.192 161.488 168.192ZM170.376 168.144C169.944 168.144 169.584 168.024 169.296 167.784C169.024 167.528 168.888 167.168 168.888 166.704V157.44C168.888 156.976 169.024 156.624 169.296 156.384C169.584 156.144 169.944 156.024 170.376 156.024C170.808 156.024 171.168 156.144 171.456 156.384C171.744 156.624 171.888 156.976 171.888 157.44V166.704C171.888 167.168 171.744 167.528 171.456 167.784C171.168 168.024 170.808 168.144 170.376 168.144ZM170.376 153.888C169.832 153.888 169.4 153.744 169.08 153.456C168.76 153.152 168.6 152.76 168.6 152.28C168.6 151.8 168.76 151.416 169.08 151.128C169.4 150.84 169.832 150.696 170.376 150.696C170.904 150.696 171.328 150.84 171.648 151.128C171.984 151.416 172.152 151.8 172.152 152.28C172.152 152.76 171.992 153.152 171.672 153.456C171.352 153.744 170.92 153.888 170.376 153.888ZM184.918 156.024C185.366 156.024 185.726 156.152 185.998 156.408C186.27 156.664 186.406 157.008 186.406 157.44V166.92C186.406 168.76 185.894 170.152 184.87 171.096C183.846 172.04 182.334 172.512 180.334 172.512C178.59 172.512 177.134 172.184 175.966 171.528C175.374 171.176 175.078 170.752 175.078 170.256C175.078 169.904 175.158 169.624 175.318 169.416C175.494 169.208 175.718 169.104 175.99 169.104C176.134 169.104 176.31 169.136 176.518 169.2C176.726 169.28 176.942 169.368 177.166 169.464C177.742 169.704 178.254 169.888 178.702 170.016C179.166 170.144 179.694 170.208 180.286 170.208C182.382 170.208 183.43 169.184 183.43 167.136V165.6C183.078 166.256 182.566 166.768 181.894 167.136C181.222 167.488 180.454 167.664 179.59 167.664C178.566 167.664 177.654 167.424 176.854 166.944C176.07 166.448 175.454 165.76 175.006 164.88C174.558 164 174.334 162.984 174.334 161.832C174.334 160.68 174.55 159.664 174.982 158.784C175.43 157.888 176.054 157.2 176.854 156.72C177.654 156.224 178.566 155.976 179.59 155.976C180.454 155.976 181.222 156.16 181.894 156.528C182.566 156.88 183.078 157.384 183.43 158.04V157.416C183.43 157 183.566 156.664 183.838 156.408C184.11 156.152 184.47 156.024 184.918 156.024ZM180.382 165.336C181.342 165.336 182.086 165.024 182.614 164.4C183.158 163.776 183.43 162.92 183.43 161.832C183.43 160.728 183.158 159.864 182.614 159.24C182.086 158.616 181.342 158.304 180.382 158.304C179.438 158.304 178.694 158.616 178.15 159.24C177.606 159.864 177.334 160.728 177.334 161.832C177.334 162.92 177.606 163.776 178.15 164.4C178.694 165.024 179.438 165.336 180.382 165.336ZM196.329 155.976C197.737 155.976 198.785 156.376 199.473 157.176C200.161 157.976 200.505 159.184 200.505 160.8V166.704C200.505 167.152 200.369 167.504 200.097 167.76C199.841 168.016 199.481 168.144 199.017 168.144C198.553 168.144 198.185 168.016 197.913 167.76C197.641 167.504 197.505 167.152 197.505 166.704V160.968C197.505 160.056 197.329 159.392 196.977 158.976C196.641 158.56 196.105 158.352 195.369 158.352C194.505 158.352 193.809 158.624 193.281 159.168C192.769 159.712 192.513 160.44 192.513 161.352V166.704C192.513 167.152 192.377 167.504 192.105 167.76C191.833 168.016 191.465 168.144 191.001 168.144C190.537 168.144 190.169 168.016 189.897 167.76C189.641 167.504 189.513 167.152 189.513 166.704V157.416C189.513 157 189.649 156.664 189.921 156.408C190.193 156.152 190.561 156.024 191.025 156.024C191.441 156.024 191.777 156.152 192.033 156.408C192.305 156.648 192.441 156.968 192.441 157.368V158.016C192.841 157.36 193.377 156.856 194.049 156.504C194.721 156.152 195.481 155.976 196.329 155.976Z" fill="black"/>
<path d="M113.194 21.2903H66.7421V52.2579H113.194V21.2903Z" fill="#F9BDBD"/>
<path d="M173.193 11.6127H64.8066C61.6054 11.6127 59 14.2181 59 17.4193V89.032C59 92.2332 61.6054 94.8386 64.8066 94.8386H97.7096V104.516H88.032V108.387H149.968V104.516H140.29V94.8386H173.193C176.395 94.8386 179 92.2332 179 89.032V17.4193C179 14.2181 176.395 11.6127 173.193 11.6127ZM64.8066 15.4838H173.194C174.262 15.4838 175.129 16.3528 175.129 17.4193V77.4193H62.871V17.4193C62.871 16.3528 63.738 15.4838 64.8066 15.4838ZM136.419 104.516H101.581V94.8386H136.419V104.516ZM173.193 90.9676H64.8066C63.738 90.9676 62.871 90.0986 62.871 89.032V81.2903H175.129V89.0324C175.129 90.0986 174.262 90.9676 173.193 90.9676Z" fill="#333333"/>
<path d="M126.969 58.0644H132.549V58.4205C130.301 59.2216 128.678 61.351 128.678 63.871C128.678 67.0722 131.283 69.6776 134.484 69.6776C137.004 69.6776 139.133 68.0538 139.935 65.8065H156.133C156.934 68.0538 159.063 69.6776 161.583 69.6776C164.784 69.6776 167.39 67.0722 167.39 63.871C167.39 61.351 165.766 59.222 163.519 58.4205V58.0644H169.141L171.464 34.8386H130.613V38.7096H167.184L165.635 54.1934H130.386L126.515 23.2258H119V27.0969H123.097L126.969 58.0644ZM156.13 61.9355H139.932C139.348 60.2963 138.057 59.005 136.417 58.4205V58.0644H159.643V58.4205C158.006 59.005 156.715 60.2963 156.13 61.9355ZM134.484 65.8065C133.415 65.8065 132.548 64.9375 132.548 63.871C132.548 62.8045 133.415 61.9355 134.484 61.9355C135.552 61.9355 136.419 62.8045 136.419 63.871C136.419 64.9375 135.552 65.8065 134.484 65.8065ZM161.581 65.8065C160.512 65.8065 159.645 64.9375 159.645 63.871C159.645 62.8045 160.512 61.9355 161.581 61.9355C162.649 61.9355 163.516 62.8045 163.516 63.871C163.516 64.9375 162.649 65.8065 161.581 65.8065Z" fill="#333333"/>
<path d="M163.516 44.5162H132.548V48.3873H163.516V44.5162Z" fill="#333333"/>
<path d="M113.194 58.0645H66.7421V61.9355H113.194V58.0645Z" fill="#333333"/>
<path d="M113.194 67.7421H66.7421V71.6131H113.194V67.7421Z" fill="#333333"/>
</svg>
