<svg width="238" height="177" viewBox="0 0 238 177" fill="none" xmlns="http://www.w3.org/2000/svg">
<path d="M73.572 159.264C74.548 159.536 75.3 160.032 75.828 160.752C76.372 161.472 76.644 162.352 76.644 163.392C76.644 164.832 76.124 165.96 75.084 166.776C74.06 167.592 72.644 168 70.836 168H64.644C64.18 168 63.812 167.872 63.54 167.616C63.284 167.36 63.156 167 63.156 166.536V152.544C63.156 152.08 63.284 151.72 63.54 151.464C63.812 151.208 64.18 151.08 64.644 151.08H70.596C72.356 151.08 73.732 151.472 74.724 152.256C75.732 153.024 76.236 154.104 76.236 155.496C76.236 156.392 75.996 157.168 75.516 157.824C75.052 158.48 74.404 158.96 73.572 159.264ZM66.18 158.208H70.092C72.22 158.208 73.284 157.416 73.284 155.832C73.284 155.032 73.02 154.44 72.492 154.056C71.964 153.672 71.164 153.48 70.092 153.48H66.18V158.208ZM70.5 165.6C71.62 165.6 72.436 165.4 72.948 165C73.46 164.6 73.716 163.976 73.716 163.128C73.716 162.28 73.452 161.648 72.924 161.232C72.412 160.816 71.604 160.608 70.5 160.608H66.18V165.6H70.5ZM88.5388 156.024C89.0028 156.024 89.3708 156.152 89.6428 156.408C89.9148 156.664 90.0508 157.008 90.0508 157.44V166.752C90.0508 167.168 89.9068 167.504 89.6188 167.76C89.3468 168.016 88.9868 168.144 88.5388 168.144C88.1068 168.144 87.7628 168.024 87.5068 167.784C87.2508 167.544 87.1228 167.216 87.1228 166.8V166.2C86.7548 166.84 86.2588 167.336 85.6348 167.688C85.0108 168.024 84.3068 168.192 83.5228 168.192C80.6428 168.192 79.2028 166.576 79.2028 163.344V157.44C79.2028 157.008 79.3388 156.664 79.6108 156.408C79.8828 156.152 80.2428 156.024 80.6908 156.024C81.1548 156.024 81.5228 156.152 81.7948 156.408C82.0668 156.664 82.2028 157.008 82.2028 157.44V163.368C82.2028 164.2 82.3708 164.816 82.7068 165.216C83.0428 165.616 83.5708 165.816 84.2908 165.816C85.1228 165.816 85.7868 165.544 86.2828 165C86.7948 164.44 87.0508 163.704 87.0508 162.792V157.44C87.0508 157.008 87.1868 156.664 87.4588 156.408C87.7308 156.152 88.0908 156.024 88.5388 156.024ZM102.965 150.96C103.413 150.96 103.781 151.088 104.069 151.344C104.357 151.6 104.501 151.936 104.501 152.352V166.704C104.501 167.136 104.365 167.48 104.093 167.736C103.821 167.992 103.461 168.12 103.013 168.12C102.565 168.12 102.205 167.992 101.933 167.736C101.661 167.48 101.525 167.136 101.525 166.704V166.104C101.173 166.76 100.661 167.272 99.9893 167.64C99.3333 168.008 98.5813 168.192 97.7333 168.192C96.7253 168.192 95.8213 167.936 95.0213 167.424C94.2373 166.912 93.6213 166.192 93.1733 165.264C92.7413 164.32 92.5253 163.24 92.5253 162.024C92.5253 160.808 92.7413 159.744 93.1733 158.832C93.6213 157.92 94.2373 157.216 95.0213 156.72C95.8053 156.224 96.7093 155.976 97.7333 155.976C98.5813 155.976 99.3333 156.152 99.9893 156.504C100.645 156.856 101.149 157.352 101.501 157.992V152.304C101.501 151.904 101.629 151.584 101.885 151.344C102.157 151.088 102.517 150.96 102.965 150.96ZM98.5253 165.864C99.4853 165.864 100.221 165.536 100.733 164.88C101.261 164.224 101.525 163.288 101.525 162.072C101.525 160.856 101.261 159.928 100.733 159.288C100.221 158.632 99.4933 158.304 98.5493 158.304C97.5893 158.304 96.8453 158.624 96.3173 159.264C95.7893 159.904 95.5253 160.824 95.5253 162.024C95.5253 163.24 95.7893 164.184 96.3173 164.856C96.8453 165.528 97.5813 165.864 98.5253 165.864ZM117.523 156.024C117.971 156.024 118.331 156.152 118.603 156.408C118.875 156.664 119.011 157.008 119.011 157.44V166.92C119.011 168.76 118.499 170.152 117.475 171.096C116.451 172.04 114.939 172.512 112.939 172.512C111.195 172.512 109.739 172.184 108.571 171.528C107.979 171.176 107.683 170.752 107.683 170.256C107.683 169.904 107.763 169.624 107.923 169.416C108.099 169.208 108.323 169.104 108.595 169.104C108.739 169.104 108.915 169.136 109.123 169.2C109.331 169.28 109.547 169.368 109.771 169.464C110.347 169.704 110.859 169.888 111.307 170.016C111.771 170.144 112.299 170.208 112.891 170.208C114.987 170.208 116.035 169.184 116.035 167.136V165.6C115.683 166.256 115.171 166.768 114.499 167.136C113.827 167.488 113.059 167.664 112.195 167.664C111.171 167.664 110.259 167.424 109.459 166.944C108.675 166.448 108.059 165.76 107.611 164.88C107.163 164 106.939 162.984 106.939 161.832C106.939 160.68 107.155 159.664 107.587 158.784C108.035 157.888 108.659 157.2 109.459 156.72C110.259 156.224 111.171 155.976 112.195 155.976C113.059 155.976 113.827 156.16 114.499 156.528C115.171 156.88 115.683 157.384 116.035 158.04V157.416C116.035 157 116.171 156.664 116.443 156.408C116.715 156.152 117.075 156.024 117.523 156.024ZM112.987 165.336C113.947 165.336 114.691 165.024 115.219 164.4C115.763 163.776 116.035 162.92 116.035 161.832C116.035 160.728 115.763 159.864 115.219 159.24C114.691 158.616 113.947 158.304 112.987 158.304C112.043 158.304 111.299 158.616 110.755 159.24C110.211 159.864 109.939 160.728 109.939 161.832C109.939 162.92 110.211 163.776 110.755 164.4C111.299 165.024 112.043 165.336 112.987 165.336ZM131.407 164.784C131.679 164.784 131.895 164.888 132.055 165.096C132.231 165.304 132.319 165.584 132.319 165.936C132.319 166.432 132.023 166.848 131.431 167.184C130.887 167.488 130.271 167.736 129.583 167.928C128.895 168.104 128.239 168.192 127.615 168.192C125.727 168.192 124.231 167.648 123.127 166.56C122.023 165.472 121.471 163.984 121.471 162.096C121.471 160.896 121.711 159.832 122.191 158.904C122.671 157.976 123.343 157.256 124.207 156.744C125.087 156.232 126.079 155.976 127.183 155.976C128.239 155.976 129.159 156.208 129.943 156.672C130.727 157.136 131.335 157.792 131.767 158.64C132.199 159.488 132.415 160.488 132.415 161.64C132.415 162.328 132.111 162.672 131.503 162.672H124.423C124.519 163.776 124.831 164.592 125.359 165.12C125.887 165.632 126.655 165.888 127.663 165.888C128.175 165.888 128.623 165.824 129.007 165.696C129.407 165.568 129.855 165.392 130.351 165.168C130.831 164.912 131.183 164.784 131.407 164.784ZM127.255 158.088C126.439 158.088 125.783 158.344 125.287 158.856C124.807 159.368 124.519 160.104 124.423 161.064H129.847C129.815 160.088 129.575 159.352 129.127 158.856C128.679 158.344 128.055 158.088 127.255 158.088ZM140.801 165.912C141.601 165.96 142.001 166.32 142.001 166.992C142.001 167.376 141.841 167.672 141.521 167.88C141.217 168.072 140.777 168.152 140.201 168.12L139.553 168.072C136.865 167.88 135.521 166.44 135.521 163.752V158.52H134.321C133.889 158.52 133.553 158.424 133.313 158.232C133.089 158.04 132.977 157.76 132.977 157.392C132.977 157.024 133.089 156.744 133.313 156.552C133.553 156.36 133.889 156.264 134.321 156.264H135.521V154.056C135.521 153.624 135.657 153.28 135.929 153.024C136.201 152.768 136.569 152.64 137.033 152.64C137.481 152.64 137.841 152.768 138.113 153.024C138.385 153.28 138.521 153.624 138.521 154.056V156.264H140.561C140.993 156.264 141.321 156.36 141.545 156.552C141.785 156.744 141.905 157.024 141.905 157.392C141.905 157.76 141.785 158.04 141.545 158.232C141.321 158.424 140.993 158.52 140.561 158.52H138.521V163.968C138.521 165.152 139.065 165.784 140.153 165.864L140.801 165.912ZM145.052 168.144C144.62 168.144 144.26 168.024 143.972 167.784C143.7 167.528 143.564 167.168 143.564 166.704V157.44C143.564 156.976 143.7 156.624 143.972 156.384C144.26 156.144 144.62 156.024 145.052 156.024C145.484 156.024 145.844 156.144 146.132 156.384C146.42 156.624 146.564 156.976 146.564 157.44V166.704C146.564 167.168 146.42 167.528 146.132 167.784C145.844 168.024 145.484 168.144 145.052 168.144ZM145.052 153.888C144.508 153.888 144.076 153.744 143.756 153.456C143.436 153.152 143.276 152.76 143.276 152.28C143.276 151.8 143.436 151.416 143.756 151.128C144.076 150.84 144.508 150.696 145.052 150.696C145.58 150.696 146.004 150.84 146.324 151.128C146.66 151.416 146.828 151.8 146.828 152.28C146.828 152.76 146.668 153.152 146.348 153.456C146.028 153.744 145.596 153.888 145.052 153.888ZM156.474 155.976C157.882 155.976 158.93 156.376 159.618 157.176C160.306 157.976 160.65 159.184 160.65 160.8V166.704C160.65 167.152 160.514 167.504 160.242 167.76C159.986 168.016 159.626 168.144 159.162 168.144C158.698 168.144 158.33 168.016 158.058 167.76C157.786 167.504 157.65 167.152 157.65 166.704V160.968C157.65 160.056 157.474 159.392 157.122 158.976C156.786 158.56 156.25 158.352 155.514 158.352C154.65 158.352 153.954 158.624 153.426 159.168C152.914 159.712 152.658 160.44 152.658 161.352V166.704C152.658 167.152 152.522 167.504 152.25 167.76C151.978 168.016 151.61 168.144 151.146 168.144C150.682 168.144 150.314 168.016 150.042 167.76C149.786 167.504 149.658 167.152 149.658 166.704V157.416C149.658 157 149.794 156.664 150.066 156.408C150.338 156.152 150.706 156.024 151.17 156.024C151.586 156.024 151.922 156.152 152.178 156.408C152.45 156.648 152.586 156.968 152.586 157.368V158.016C152.986 157.36 153.522 156.856 154.194 156.504C154.866 156.152 155.626 155.976 156.474 155.976ZM173.633 156.024C174.081 156.024 174.441 156.152 174.713 156.408C174.985 156.664 175.121 157.008 175.121 157.44V166.92C175.121 168.76 174.609 170.152 173.585 171.096C172.561 172.04 171.049 172.512 169.049 172.512C167.305 172.512 165.849 172.184 164.681 171.528C164.089 171.176 163.793 170.752 163.793 170.256C163.793 169.904 163.873 169.624 164.033 169.416C164.209 169.208 164.433 169.104 164.705 169.104C164.849 169.104 165.025 169.136 165.233 169.2C165.441 169.28 165.657 169.368 165.881 169.464C166.457 169.704 166.969 169.888 167.417 170.016C167.881 170.144 168.409 170.208 169.001 170.208C171.097 170.208 172.145 169.184 172.145 167.136V165.6C171.793 166.256 171.281 166.768 170.609 167.136C169.937 167.488 169.169 167.664 168.305 167.664C167.281 167.664 166.369 167.424 165.569 166.944C164.785 166.448 164.169 165.76 163.721 164.88C163.273 164 163.049 162.984 163.049 161.832C163.049 160.68 163.265 159.664 163.697 158.784C164.145 157.888 164.769 157.2 165.569 156.72C166.369 156.224 167.281 155.976 168.305 155.976C169.169 155.976 169.937 156.16 170.609 156.528C171.281 156.88 171.793 157.384 172.145 158.04V157.416C172.145 157 172.281 156.664 172.553 156.408C172.825 156.152 173.185 156.024 173.633 156.024ZM169.097 165.336C170.057 165.336 170.801 165.024 171.329 164.4C171.873 163.776 172.145 162.92 172.145 161.832C172.145 160.728 171.873 159.864 171.329 159.24C170.801 158.616 170.057 158.304 169.097 158.304C168.153 158.304 167.409 158.616 166.865 159.24C166.321 159.864 166.049 160.728 166.049 161.832C166.049 162.92 166.321 163.776 166.865 164.4C167.409 165.024 168.153 165.336 169.097 165.336Z" fill="black"/>
<path d="M58.7148 85.748C62.8108 86.9 65.9148 88.884 68.0268 91.7C70.1388 94.452 71.1948 97.94 71.1948 102.164C71.1948 108.052 69.1148 112.692 64.9548 116.084C60.8588 119.476 55.2908 121.172 48.2508 121.172C44.0908 121.172 40.0908 120.5 36.2508 119.156C32.4748 117.812 29.2748 115.956 26.6508 113.588C25.3708 112.564 24.7308 111.284 24.7308 109.748C24.7308 108.596 25.0508 107.636 25.6908 106.868C26.3308 106.036 27.0988 105.62 27.9948 105.62C28.9548 105.62 30.0428 106.036 31.2588 106.868C34.0108 108.916 36.6988 110.484 39.3228 111.572C42.0108 112.596 44.8908 113.108 47.9628 113.108C57.0508 113.108 61.5948 109.236 61.5948 101.492C61.5948 97.716 60.3788 94.9 57.9468 93.044C55.5788 91.124 51.9628 90.164 47.0988 90.164H41.8188C40.6028 90.164 39.6428 89.78 38.9388 89.012C38.2348 88.18 37.8828 87.22 37.8828 86.132C37.8828 85.108 38.2348 84.212 38.9388 83.444C39.6428 82.612 40.6028 82.196 41.8188 82.196H45.5627C50.2348 82.196 53.7868 81.236 56.2188 79.316C58.7148 77.332 59.9628 74.452 59.9628 70.676C59.9628 67.348 58.9388 64.756 56.8908 62.9C54.9068 61.044 52.0908 60.116 48.4427 60.116C43.0668 60.116 37.6908 62.196 32.3148 66.356C31.0988 67.188 30.0108 67.604 29.0508 67.604C28.1548 67.604 27.3868 67.22 26.7468 66.452C26.1068 65.62 25.7868 64.628 25.7868 63.476C25.7868 61.94 26.4268 60.66 27.7068 59.636C30.3308 57.268 33.4988 55.412 37.2108 54.068C40.9868 52.724 44.8588 52.052 48.8268 52.052C55.1628 52.052 60.1868 53.62 63.8988 56.756C67.6748 59.892 69.5627 64.148 69.5627 69.524C69.5627 73.364 68.6028 76.724 66.6828 79.604C64.8268 82.42 62.1708 84.468 58.7148 85.748Z" fill="#F9BDBD" fill-opacity="0.25"/>
<path d="M84.1613 46.4516C84.1613 58.2101 93.6931 67.742 105.452 67.742V25.1613C93.6931 25.1613 84.1613 34.6932 84.1613 46.4516Z" fill="#A8DCEC"/>
<path d="M171.258 65.8065H128.677V46.4517H171.258V65.8065Z" fill="#F9BDBD"/>
<path d="M163.516 32.9033H132.548V25.1613H163.516V32.9033Z" fill="#F7DEA6"/>
<path d="M173.194 38.7097H171.258V15.4839H78.3548V0H68.6774C63.3416 0 59 4.34161 59 9.67742V83.2258C59 88.5616 63.3416 92.9032 68.6774 92.9032H120.935V114.194C120.935 117.394 123.541 120 126.742 120H173.194C176.394 120 179 117.394 179 114.194V44.5161C179 41.3152 176.394 38.7097 173.194 38.7097ZM62.871 9.67742C62.871 6.4765 65.4765 3.87097 68.6774 3.87097H74.4839V73.5484H68.6774C66.5 73.5484 64.4889 74.2723 62.871 75.4876V9.67742ZM68.6774 89.0323C65.4765 89.0323 62.871 86.4267 62.871 83.2258C62.871 80.0249 65.4765 77.4193 68.6774 77.4193H78.3548V19.3548H167.387V38.7097H127.342C124.092 29.5218 115.311 23.2258 105.452 23.2258C92.6442 23.2258 82.2258 33.6442 82.2258 46.4516C82.2258 59.2591 92.6442 69.6774 105.452 69.6774C111.219 69.6774 116.716 67.5113 120.935 63.7377V89.0323H68.6774ZM120.935 44.5161H107.387V27.2055C114.682 27.9426 121.004 32.787 123.58 39.6585C121.99 40.6952 120.935 42.4824 120.935 44.5161ZM103.516 65.7082C93.7499 64.7338 86.0968 56.4693 86.0968 46.4516C86.0968 36.434 93.7499 28.1694 103.516 27.1951V65.7082ZM107.387 48.3871H120.935V58.022C117.676 62.3749 112.752 65.1468 107.387 65.6883V48.3871ZM175.129 114.194C175.129 115.26 174.26 116.129 173.194 116.129H126.742C125.676 116.129 124.806 115.26 124.806 114.194V44.5161C124.806 43.4501 125.676 42.5806 126.742 42.5806H173.194C174.26 42.5806 175.129 43.4501 175.129 44.5161V114.194Z" fill="black"/>
<path d="M159.645 112.258H171.258V100.645H159.645V112.258ZM163.516 104.516H167.387V108.387H163.516V104.516Z" fill="black"/>
<path d="M144.161 112.258H155.774V100.645H144.161V112.258ZM148.032 104.516H151.903V108.387H148.032V104.516Z" fill="black"/>
<path d="M128.677 112.258H140.29V100.645H128.677V112.258ZM132.548 104.516H136.419V108.387H132.548V104.516Z" fill="black"/>
<path d="M159.645 96.7742H171.258V85.1613H159.645V96.7742ZM163.516 89.0322H167.387V92.9032H163.516V89.0322Z" fill="black"/>
<path d="M144.161 96.7742H155.774V85.1613H144.161V96.7742ZM148.032 89.0322H151.903V92.9032H148.032V89.0322Z" fill="black"/>
<path d="M128.677 96.7742H140.29V85.1613H128.677V96.7742ZM132.548 89.0322H136.419V92.9032H132.548V89.0322Z" fill="black"/>
<path d="M159.645 81.2903H171.258V69.6774H159.645V81.2903ZM163.516 73.5484H167.387V77.4194H163.516V73.5484Z" fill="black"/>
<path d="M144.161 81.2903H155.774V69.6774H144.161V81.2903ZM148.032 73.5484H151.903V77.4194H148.032V73.5484Z" fill="black"/>
<path d="M128.677 81.2903H140.29V69.6774H128.677V81.2903ZM132.548 73.5484H136.419V77.4194H132.548V73.5484Z" fill="black"/>
<path d="M132.548 23.2258H163.516V27.0968H132.548V23.2258Z" fill="black"/>
<path d="M132.548 30.9677H163.516V34.8387H132.548V30.9677Z" fill="black"/>
<path d="M132.548 58.0645H167.387V61.9355H132.548V58.0645Z" fill="black"/>
</svg>
